HIERARCHY
ROOT Hips
{
	OFFSET -3.958830 18.904000 13.208200
	CHANNELS 6 Xposition Yposition Zposition Zrotation Yrotation Xrotation 
	JOINT LHipJoint
	{
		OFFSET 0.000000 0.000000 0.000000
		CHANNELS 3 Zrotation Yrotation Xrotation
		JOINT LeftUpLeg
		{
			OFFSET 1.800000 -1.400000 0.085000
			CHANNELS 3 Zrotation Yrotation Xrotation
			JOINT LeftLeg
			{
				OFFSET 2.215000 -6.000000 0.000000
				CHANNELS 3 Zrotation Yrotation Xrotation
				JOINT LeftFoot
				{
					OFFSET 2.500000 -6.900000 0.000000
					CHANNELS 3 Zrotation Yrotation Xrotation
					JOINT LeftToeBase
					{
						OFFSET 0.200000 -0.500000 1.950000
						CHANNELS 3 Zrotation Yrotation Xrotation
						End Site
						{
							OFFSET 0.000000 0.000000 0.000000
						}
					}
				}
			}
		}
	}
	JOINT RHipJoint
	{
		OFFSET 0.000000 0.000000 0.000000
		CHANNELS 3 Zrotation Yrotation Xrotation
		JOINT RightUpLeg
		{
			OFFSET -1.800000 -1.400000 0.085000
			CHANNELS 3 Zrotation Yrotation Xrotation
			JOINT RightLeg
			{
				OFFSET -2.215000 -6.000000 0.000000
				CHANNELS 3 Zrotation Yrotation Xrotation
				JOINT RightFoot
				{
					OFFSET -2.500000 -6.900000 0.000000
					CHANNELS 3 Zrotation Yrotation Xrotation
					JOINT RightToeBase
					{
						OFFSET -0.200000 -0.500000 1.950000
						CHANNELS 3 Zrotation Yrotation Xrotation
						End Site
						{
							OFFSET 0.000000 0.000000 0.000000
						}
					}
				}
			}
		}
	}
	JOINT LowerBack
	{
		OFFSET 0.000000 0.000000 0.000000
		CHANNELS 3 Zrotation Yrotation Xrotation
		JOINT Spine
		{
			OFFSET -0.087000 1.940000 -0.288900
			CHANNELS 3 Zrotation Yrotation Xrotation
			JOINT Spine1
			{
				OFFSET 0.000000 1.950000 0.060000
				CHANNELS 3 Zrotation Yrotation Xrotation
				JOINT Neck
				{
					OFFSET 0.000000 0.000000 0.000000
					CHANNELS 3 Zrotation Yrotation Xrotation
					JOINT Neck1
					{
						OFFSET 0.000000 1.600000 0.340000
						CHANNELS 3 Zrotation Yrotation Xrotation
						JOINT Head
						{
							OFFSET 0.000000 1.667000 -0.240000
							CHANNELS 3 Zrotation Yrotation Xrotation
							End Site
							{
								OFFSET 0.000000 0.000000 0.000000
							}
						}
					}
				}
				JOINT LeftShoulder
				{
					OFFSET 0.000000 0.000000 0.000000
					CHANNELS 3 Zrotation Yrotation Xrotation
					JOINT LeftArm
					{
						OFFSET 2.700000 1.550000 -0.730000
						CHANNELS 3 Zrotation Yrotation Xrotation
						JOINT LeftForeArm
						{
							OFFSET 5.450000 0.000000 0.000000
							CHANNELS 3 Zrotation Yrotation Xrotation
							JOINT LeftHand
							{
								OFFSET 3.450000 0.000000 0.000000
								CHANNELS 3 Zrotation Yrotation Xrotation
								JOINT LeftHandIndex1
								{
									OFFSET 0.750000 0.000000 0.000000
									CHANNELS 3 Zrotation Yrotation Xrotation
									End Site
									{
										OFFSET 0.000000 0.000000 0.000000
									}
								}
							}
						}
					}
				}
				JOINT RightShoulder
				{
					OFFSET 0.000000 0.000000 0.000000
					CHANNELS 3 Zrotation Yrotation Xrotation
					JOINT RightArm
					{
						OFFSET -2.700000 1.550000 -0.730000
						CHANNELS 3 Zrotation Yrotation Xrotation
						JOINT RightForeArm
						{
							OFFSET -5.450000 0.000000 0.000000
							CHANNELS 3 Zrotation Yrotation Xrotation
							JOINT RightHand
							{
								OFFSET -3.450000 0.000000 0.000000
								CHANNELS 3 Zrotation Yrotation Xrotation
								JOINT RightHandIndex1
								{
									OFFSET -0.750000 0.000000 0.000000
									CHANNELS 3 Zrotation Yrotation Xrotation
									End Site
									{
										OFFSET 0.000000 0.000000 0.000000
									}
								}
							}
						}
					}
				}
			}
		}
	}
}
MOTION
Frames: 4
Frame Time: 0.016667
-1.243840 17.196990 0.049710 -5.373271 -5.081196 -6.377768 -15.131698 12.644476 2.998143 -1.718574 2.063196 21.096965 -3.169802 8.942212 26.253675 0.269242 8.288427 2.131551 -0.022050 -0.283710 -0.348880 18.695908 -8.640937 4.741396 15.315197 11.809831 -42.168765 -4.475688 -3.335123 34.521345 -0.499847 -3.832284 2.940846 -0.117020 0.971280 0.654080 -4.270101 -2.935439 -8.157146 17.436040 -12.454766 23.022706 -8.291541 -10.662579 9.201463 1.066658 -4.230955 -9.109910 -9.474592 3.927371 29.238219 -2.390580 1.607470 -20.869880 -16.353097 -10.293244 5.838373 -39.188798 -15.900005 0.325884 176.088483 -74.568437 173.435455 -3.913385 3.009586 0.908260 0.359030 0.121620 0.474470 14.385151 8.088559 4.266302 57.914912 10.650008 -13.674825 -87.900816 56.607235 -53.209338 1.237609 -0.060165 -0.468660 0.574010 0.370170 0.123300 
-1.229180 16.877430 0.062860 -4.940016 -6.218150 -7.716387 -15.192680 12.396056 3.133018 -3.383410 2.743580 23.822468 -3.286232 9.498197 28.225549 0.341276 8.793223 1.979065 -0.035210 -0.314680 -0.340270 18.694787 -8.343076 4.965056 14.902283 13.263643 -44.467178 -4.089032 -3.745471 39.065353 -0.610930 -4.576991 2.706861 -0.100820 0.994580 0.627960 -4.198736 -2.943654 -8.307660 16.850418 -12.556928 24.807529 -7.088037 -10.826979 10.800561 0.774363 -3.831256 -9.631252 -8.419851 3.388546 28.262490 -3.653160 1.807300 -21.334270 -14.344791 -11.166711 6.880843 -36.367531 -14.936449 1.167294 162.291501 -63.561182 -167.200877 -4.044003 2.974240 0.929670 0.386430 0.082570 0.465620 13.130529 9.127988 4.227532 56.824002 13.536618 -11.102470 -103.220326 50.533361 -66.436478 1.497932 -0.555647 -0.531010 0.608740 0.385170 0.087840 
-1.204700 16.593680 0.060650 -4.879889 -5.378599 -10.439339 -15.253432 12.331294 3.262625 -3.743203 2.673830 27.030500 -3.092154 10.131865 31.206453 0.357159 9.448444 1.740167 -0.025460 -0.335760 -0.278390 18.652311 -8.199424 4.981546 13.514222 13.562265 -45.946323 -3.016167 -4.868377 44.267512 -0.807837 -5.520279 2.356766 -0.074640 0.951170 0.598610 -4.044964 -3.116082 -8.412082 16.153434 -13.228797 28.414287 -5.895514 -11.691362 12.592664 0.721757 -3.419766 -9.746753 -7.515534 2.798067 27.898186 -5.079120 1.733010 -26.037990 -13.230305 -13.077809 7.421534 -31.070315 -14.273381 0.099549 156.653249 -54.548506 -155.112178 -4.103856 2.815270 1.041200 0.343690 0.092440 0.411810 12.439282 10.894261 4.106355 55.226558 17.323597 -10.854897 -112.165187 43.889363 -71.618516 1.546642 -0.922052 -0.609730 0.660230 0.423630 0.011020 
-1.182400 16.328290 0.067740 -4.004293 -6.142602 -12.018450 -15.350106 12.169421 3.412846 -5.843678 3.444137 28.482136 -2.995695 10.493030 33.425694 0.374744 9.884912 1.614927 -0.041130 -0.361120 -0.270550 18.610064 -7.901500 5.137076 12.390297 14.633252 -47.958635 -2.512250 -5.531092 49.231723 -1.005389 -6.454289 2.046076 -0.054090 1.000370 0.601660 -3.857487 -3.341028 -8.567868 14.831825 -12.531951 31.703909 -4.273944 -11.295677 12.608024 0.298392 -2.999744 -9.501805 -6.401769 2.565962 26.074447 -5.692960 1.857140 -29.027440 -11.527946 -12.880558 6.992438 -26.597071 -13.975123 -0.215612 156.126890 -49.433269 -150.708520 -4.165450 2.707878 1.101590 0.364630 0.090090 0.405580 11.753017 10.881650 3.700908 53.841976 18.921151 -10.511227 -118.207063 39.665038 -74.264513 1.503302 -1.067072 -0.680600 0.741260 0.462630 -0.013920 
